<svg xmlns="http://www.w3.org/2000/svg" width="1280" height="720" viewBox="0 0 1280 720">
<defs>
 <linearGradient id="sand" x1="0" y1="0" x2="0" y2="1"><stop stop-color="#f0bd70"/><stop offset=".5" stop-color="#d99a4f"/><stop offset="1" stop-color="#b96f35"/></linearGradient>
 <linearGradient id="rock" x1="0" y1="0" x2="1" y2="1"><stop stop-color="#b85e35"/><stop offset=".55" stop-color="#7d3d29"/><stop offset="1" stop-color="#43251d"/></linearGradient>
 <linearGradient id="wood" x1="0" y1="0" x2="0" y2="1"><stop stop-color="#8f5a31"/><stop offset="1" stop-color="#3f291d"/></linearGradient>
 <linearGradient id="gold" x1="0" y1="0" x2="1" y2="1"><stop stop-color="#fff58a"/><stop offset=".35" stop-color="#ffc51c"/><stop offset="1" stop-color="#d87506"/></linearGradient>
 <radialGradient id="sun"><stop stop-color="#ffd989" stop-opacity=".48"/><stop offset="1" stop-color="#e59c50" stop-opacity="0"/></radialGradient>
 <pattern id="grain" width="72" height="64" patternUnits="userSpaceOnUse"><circle cx="9" cy="13" r="2" fill="#8b5737" opacity=".28"/><circle cx="43" cy="27" r="1.6" fill="#70472f" opacity=".22"/><circle cx="63" cy="52" r="2.2" fill="#a66c3f" opacity=".25"/><path d="M18 47 q11-4 20 0" fill="none" stroke="#895737" stroke-width="1.7" opacity=".25"/></pattern>
 <filter id="shadow"><feGaussianBlur stdDeviation="7"/></filter>
 <g id="crystal"><path d="M0-34 L18-9 10 27 -12 27 -20-7Z" fill="url(#gold)" stroke="#6e3b09" stroke-width="4"/><path d="M0-28 L6-7 2 20" fill="none" stroke="#fff3a1" stroke-width="3" opacity=".8"/></g>
 <g id="cactus"><path d="M-11 45 V-42 Q-11-59 0-60 Q11-59 11-42 V45Z" fill="#6d8b2b" stroke="#2f4318" stroke-width="6"/><path d="M-8-4 Q-35-4-35-28 V-39 Q-35-51-27-51 Q-18-50-18-38 V-27 Q-18-20-9-20 M9-24 Q34-23 34-46 V-55 Q34-66 26-66 Q18-65 18-54 V-43 Q18-38 9-38" fill="#6d8b2b" stroke="#2f4318" stroke-width="6" stroke-linecap="round"/><path d="M0-52 V38 M-28-44 V-21 M27-57 V-39" stroke="#b2c65c" stroke-width="3"/></g>
 <g id="rockPile"><path d="M-62 18 L-48-16 -22-35 8-29 25-8 47-17 65 8 54 31 -48 32Z" fill="url(#rock)" stroke="#4b2a20" stroke-width="6"/><path d="M-35-11 L-17-26 1-21 M28-4 L46-10" fill="none" stroke="#d98658" stroke-width="4" opacity=".7"/></g>
</defs>
<rect width="1280" height="720" fill="url(#sand)"/><rect width="1280" height="720" fill="url(#grain)"/><ellipse cx="650" cy="350" rx="510" ry="330" fill="url(#sun)"/>
<g fill="none" stroke="#925c37" opacity=".32" stroke-width="4"><path d="M80 165 C310 215 430 300 400 455 C380 560 460 655 540 720"/><path d="M132 150 C360 220 480 305 450 460 C430 565 510 650 595 720"/><path d="M1190 140 C940 205 840 300 870 430 C900 545 810 650 740 720"/><path d="M1138 137 C900 210 790 305 820 438 C850 548 760 650 690 720"/></g>
<path d="M0 0 H1280 V86 L1220 78 1170 105 1110 88 1050 122 985 96 920 132 850 103 790 132 720 110 650 137 585 109 515 133 450 102 390 128 320 94 255 119 195 86 135 105 70 76 0 95Z" fill="#4a2b22" opacity=".9"/>
<path d="M0 0 H1280 V55 L1210 48 1150 74 1085 57 1020 83 950 62 885 88 815 68 750 94 680 73 610 99 540 72 475 95 405 66 340 92 270 62 205 86 140 58 75 78 0 58Z" fill="#2c211d"/>
<g transform="translate(70 55)" stroke="#2b1c15" stroke-linejoin="round"><path d="M0 180 L32 0 H196 L226 180" fill="none" stroke="#5b3a27" stroke-width="16"/><path d="M20 126 H207 M35 72 H193 M50 16 H178" stroke="#9a6036" stroke-width="13"/><path d="M17 174 L195 0 M210 174 L38 0" stroke="#4a3022" stroke-width="8"/><rect x="72" y="92" width="92" height="76" fill="#3a271e" stroke-width="8"/><path d="M83 158 V108 H153 V158" fill="none" stroke="#b1763f" stroke-width="10"/><circle cx="34" cy="42" r="7" fill="#ffb72a" stroke="#6d3c0a" stroke-width="4"/></g>
<g transform="translate(1030 50)" stroke="#2b1c15" stroke-linejoin="round"><path d="M0 184 L25 6 H174 L212 184" fill="none" stroke="#5b3a27" stroke-width="16"/><path d="M18 130 H194 M31 77 H184 M45 20 H170" stroke="#9a6036" stroke-width="13"/><path d="M14 176 L172 5 M203 176 L48 5" stroke="#4a3022" stroke-width="8"/><rect x="65" y="96" width="90" height="72" fill="#3a271e" stroke-width="8"/><circle cx="181" cy="54" r="7" fill="#ffb72a" stroke="#6d3c0a" stroke-width="4"/></g>
<g stroke="#4d301f" stroke-width="8" stroke-linecap="round"><path d="M260 118 V181 M330 112 V175 M400 105 V168 M260 134 L410 116 M260 162 L405 145"/><path d="M875 118 V180 M945 110 V172 M1012 103 V166 M870 134 L1020 115 M875 162 L1015 143"/></g>
<g transform="translate(1010 145) rotate(3)"><rect x="0" y="0" width="150" height="82" rx="5" fill="#9c7045" stroke="#43291b" stroke-width="7"/><path d="M14 24 H136 M14 48 H136" stroke="#5a3924" stroke-width="3"/><text x="75" y="30" text-anchor="middle" font-family="sans-serif" font-weight="900" font-size="18" fill="#3b271b">GOLD</text><text x="75" y="54" text-anchor="middle" font-family="sans-serif" font-weight="900" font-size="16" fill="#3b271b">FUELS</text><text x="75" y="75" text-anchor="middle" font-family="sans-serif" font-weight="900" font-size="14" fill="#3b271b">TOMORROW</text></g>
<g transform="translate(55 330) scale(1.25)"><use href="#cactus"/></g><g transform="translate(1188 315) scale(1.15)"><use href="#cactus"/></g><g transform="translate(995 560) scale(.9)"><use href="#cactus"/></g><g transform="translate(185 560) scale(.82)"><use href="#cactus"/></g>
<g transform="translate(110 500)"><use href="#rockPile"/></g><g transform="translate(1170 505)"><use href="#rockPile"/></g><g transform="translate(720 112) scale(.7)"><use href="#rockPile"/></g><g transform="translate(335 610) scale(.75)"><use href="#rockPile"/></g>
<g transform="translate(275 175)"><use href="#crystal"/><g transform="translate(24 14) scale(.75)"><use href="#crystal"/></g><g transform="translate(-24 17) scale(.6)"><use href="#crystal"/></g></g>
<g transform="translate(930 170) scale(.85)"><use href="#crystal"/><g transform="translate(24 14) scale(.75)"><use href="#crystal"/></g><g transform="translate(-24 17) scale(.6)"><use href="#crystal"/></g></g>
<g transform="translate(1060 590) scale(.8)"><use href="#crystal"/><g transform="translate(22 15) scale(.65)"><use href="#crystal"/></g></g>
<g transform="translate(410 565) scale(.7)"><use href="#crystal"/><g transform="translate(22 15) scale(.65)"><use href="#crystal"/></g></g>
<g transform="translate(285 230)"><rect x="-42" y="-28" width="84" height="56" fill="url(#wood)" stroke="#342119" stroke-width="6"/><path d="M-42-28 L42 28 M42-28 L-42 28" stroke="#b17943" stroke-width="6"/></g>
<g transform="translate(150 610)"><path d="M-58-30 H45 L56 26 H-48Z" fill="#6b4328" stroke="#2f211a" stroke-width="7"/><path d="M-44-20 H39 V12 H-38Z" fill="#9b6636"/><g transform="translate(-22,-18) scale(.45)"><use href="#crystal"/></g><g transform="translate(4,-22) scale(.5)"><use href="#crystal"/></g><g transform="translate(27,-15) scale(.4)"><use href="#crystal"/></g><circle cx="-35" cy="34" r="15" fill="#30302d" stroke="#1c1714" stroke-width="6"/><circle cx="42" cy="34" r="15" fill="#30302d" stroke="#1c1714" stroke-width="6"/></g>
<g transform="translate(30 655) rotate(-5)" stroke-linecap="round"><path d="M0 0 H390 M0 36 H390" stroke="#30261f" stroke-width="8"/><g stroke="#6e4930" stroke-width="9"><path d="M20-7 V43 M70-7 V43 M120-7 V43 M170-7 V43 M220-7 V43 M270-7 V43 M320-7 V43 M370-7 V43"/></g></g>
<g fill="#75692e" stroke="#4c431f" stroke-width="3"><path d="M505 205 q18-37 34 0 q15-27 28 0z"/><path d="M760 250 q17-32 31 0 q13-24 27 0z"/><path d="M610 520 q16-31 30 0 q12-22 24 0z"/><path d="M870 470 q18-34 33 0z"/></g>
<g fill="#4a2a20" opacity=".22" filter="url(#shadow)"><ellipse cx="85" cy="375" rx="90" ry="22"/><ellipse cx="1180" cy="365" rx="95" ry="23"/><ellipse cx="155" cy="655" rx="115" ry="22"/><ellipse cx="1070" cy="620" rx="105" ry="22"/></g>
<path d="M0 640 L75 620 132 648 198 625 250 670 320 642 380 690 445 658 500 720 H0Z" fill="#241d1a"/>
<path d="M1280 628 L1218 612 1165 642 1100 620 1040 665 980 638 920 690 850 658 800 720 H1280Z" fill="#241d1a"/>
<path d="M0 688 L82 655 150 690 220 670 300 720 H0Z M1280 680 L1210 650 1145 690 1070 666 990 720 H1280Z" fill="#111313" opacity=".9"/>
</svg>