<svg xmlns="http://www.w3.org/2000/svg" width="960" height="320" viewBox="0 0 960 320">
<defs><linearGradient id="steel" x1="0" y1="0" x2="0" y2="1"><stop stop-color="#647383"/><stop offset="1" stop-color="#26313b"/></linearGradient><linearGradient id="gold2"><stop stop-color="#ffe986"/><stop offset="1" stop-color="#b97813"/></linearGradient></defs>
<g><ellipse cx="160" cy="270" rx="72" ry="18" fill="#28180d" opacity=".22"/><rect x="98" y="213" width="124" height="36" rx="12" fill="url(#steel)" stroke="#17212a" stroke-width="8"/><rect x="122" y="148" width="76" height="76" rx="20" fill="url(#steel)" stroke="#17212a" stroke-width="8"/><path d="M132 168 C96 120 87 96 106 83 C124 71 146 99 160 121 C175 99 196 71 215 83 C234 96 224 121 189 168" fill="none" stroke="#31d8ff" stroke-width="16" stroke-linecap="round"/><circle cx="160" cy="185" r="17" fill="#ffdb55" stroke="#5d3b08" stroke-width="5"/></g>
<g transform="translate(320 0)"><ellipse cx="160" cy="270" rx="63" ry="16" fill="#28180d" opacity=".2"/><path d="M144 241 L144 119 Q144 93 160 93 Q176 93 176 119 L176 150 L195 132 L195 108 Q195 93 209 93 Q223 93 223 109 L223 147 Q223 161 209 171 L176 190 L176 241Z" fill="#3e9a51" stroke="#1f542d" stroke-width="8"/><path d="M144 170 L121 153 L121 132 Q121 116 107 116 Q93 116 93 132 L93 165 Q93 177 104 185 L144 208" fill="#3e9a51" stroke="#1f542d" stroke-width="8"/><circle cx="151" cy="142" r="7" fill="#182319"/><circle cx="175" cy="142" r="7" fill="#182319"/><path d="M145 111 L162 94 L179 111" fill="#f3c34f" stroke="#69430a" stroke-width="5"/><rect x="138" y="184" width="45" height="20" rx="8" fill="#394956" stroke="#17212a" stroke-width="5"/><rect x="180" y="188" width="31" height="11" rx="5" fill="#52dff2"/></g>
<g transform="translate(640 0)"><ellipse cx="160" cy="270" rx="62" ry="17" fill="#28180d" opacity=".22"/><rect x="103" y="125" width="114" height="122" rx="20" fill="#a62d1e" stroke="#4d160f" stroke-width="9"/><rect x="112" y="145" width="96" height="25" fill="#ddb33e" opacity=".9"/><rect x="112" y="204" width="96" height="24" fill="#ddb33e" opacity=".9"/><text x="160" y="198" font-family="sans-serif" font-weight="900" font-size="42" text-anchor="middle" fill="#fff1c5">TNT</text><path d="M159 125 Q164 87 195 83" fill="none" stroke="#403023" stroke-width="7"/><circle cx="200" cy="82" r="10" fill="#ffdf59"/><circle cx="205" cy="77" r="4" fill="#fff"/></g>
</svg>
