<svg xmlns="http://www.w3.org/2000/svg" width="460" height="340" viewBox="0 0 460 340"><g stroke="#2c2119" stroke-width="8" stroke-linejoin="round"><path d="M62 151 L222 65 L402 151 L400 295 L62 295Z" fill="#36553c"/><path d="M35 154 L220 40 L428 154 L388 176 L221 82 L76 177Z" fill="#65422d"/><path d="M45 215 L133 164 L213 206 L213 296 L45 296Z" fill="#7a5233"/><path d="M35 210 L129 151 L221 204 L207 222 L129 179 L50 227Z" fill="#593b28"/><rect x="258" y="177" width="74" height="71" fill="#f0b84a"/><path d="M295 177 V248 M258 212 H332" fill="none"/><rect x="132" y="225" width="57" height="70" fill="#4a3022"/><rect x="343" y="102" width="38" height="70" fill="#8f5133"/></g></svg>